<svg width="383" height="170" viewBox="0 0 383 170" fill="none" xmlns="http://www.w3.org/2000/svg">
<path d="M307.87 16.001C311.667 15.968 315.317 18.1075 317.026 21.7734L371.967 139.594C374.301 144.599 372.135 150.549 367.13 152.883C362.124 155.217 356.175 153.051 353.841 148.046L341.77 122.16C341.738 122.16 341.706 122.163 341.674 122.163H274.674C274.441 122.163 274.21 122.152 273.981 122.137L261.9 148.046C259.566 153.051 253.616 155.217 248.61 152.883C243.605 150.549 241.44 144.599 243.773 139.594L298.714 21.7734C300.423 18.1074 304.073 15.968 307.87 16.001ZM283.296 102.163H332.445L307.87 49.4629L283.296 102.163Z" fill="black"/>
<path d="M160 85C160 126.421 126.421 160 85 160C43.5786 160 10 126.421 10 85C10 43.5786 43.5786 10 85 10C126.421 10 160 43.5786 160 85Z" fill="black"/>
<path d="M135 85C135 112.614 112.614 135 85 135C57.3858 135 35 112.614 35 85C35 57.3858 57.3858 35 85 35C112.614 35 135 57.3858 135 85Z" fill="white"/>
<path d="M110 85C110 98.8071 98.8071 110 85 110C71.1929 110 60 98.8071 60 85C60 71.1929 71.1929 60 85 60C98.8071 60 110 71.1929 110 85Z" fill="black"/>
<path d="M80 65.5C80 72.4036 74.4036 78 67.5 78C60.5964 78 55 72.4036 55 65.5C55 58.5964 60.5964 53 67.5 53C74.4036 53 80 58.5964 80 65.5Z" fill="white"/>
<path d="M261.004 22.0627C263.338 17.0576 269.288 14.8918 274.293 17.2258C279.298 19.5599 281.464 25.5104 279.13 30.5158L224.189 148.335C222.48 152.001 218.83 154.141 215.033 154.108C211.236 154.141 207.586 152.001 205.877 148.335L150.937 30.5158C148.602 25.5105 150.768 19.5599 155.773 17.2258C160.779 14.8917 166.729 17.0574 169.063 22.0627L215.033 120.646L261.004 22.0627Z" fill="black"/>
<path d="M85 0C106.333 0 125.83 7.85999 140.755 20.8408C142.285 15.4447 146.065 10.7197 151.547 8.16309C161.557 3.49514 173.459 7.82526 178.127 17.8359V17.8369L215.033 96.9824L251.941 17.8359C256.61 7.82677 268.508 3.49479 278.52 8.16309C283.485 10.4785 287.051 14.5735 288.816 19.334L289.65 17.5469H289.651C293.053 10.252 300.282 6.00346 307.783 6.00293V6.00098C307.812 6.00072 307.841 6.00208 307.87 6.00195C307.899 6.00208 307.928 6.00073 307.957 6.00098L307.956 6.00293C315.458 6.00304 322.687 10.2519 326.089 17.5469H326.09L381.03 135.367C385.699 145.378 381.366 157.277 371.356 161.945V161.946C361.346 166.614 349.445 162.283 344.777 152.272V152.271L335.4 132.163H280.34L270.964 152.271V152.272C266.296 162.284 254.394 166.614 244.384 161.946V161.945C239.419 159.63 235.852 155.535 234.086 150.774L233.253 152.562C229.851 159.857 222.621 164.105 215.119 164.105L215.12 164.107C215.091 164.108 215.062 164.106 215.033 164.106C215.004 164.106 214.975 164.108 214.946 164.107V164.105C207.445 164.105 200.215 159.857 196.813 152.562L169.523 94.0381C165.011 136.733 128.891 170 85 170C38.0558 170 0 131.944 0 85C0 38.0558 38.0558 0 85 0ZM274.293 17.2256C269.288 14.8917 263.338 17.0576 261.004 22.0625L215.033 120.646L169.063 22.0625C166.729 17.0573 160.779 14.8916 155.773 17.2256C150.768 19.5597 148.603 25.5103 150.937 30.5156L205.877 148.335C207.586 152.001 211.236 154.14 215.033 154.107C218.83 154.14 222.48 152.001 224.189 148.335L279.13 30.5156C281.464 25.5103 279.298 19.5596 274.293 17.2256ZM307.87 16.001C304.073 15.968 300.423 18.1074 298.714 21.7734L243.773 139.594C241.44 144.599 243.605 150.549 248.61 152.883C253.616 155.217 259.566 153.051 261.9 148.046L273.981 122.137C274.21 122.152 274.441 122.163 274.674 122.163H341.674C341.706 122.163 341.738 122.16 341.77 122.16L353.841 148.046C356.175 153.051 362.124 155.217 367.13 152.883C372.135 150.549 374.301 144.599 371.967 139.594L317.026 21.7734C315.317 18.1075 311.667 15.968 307.87 16.001ZM332.445 102.163H283.296L307.87 49.4629L332.445 102.163ZM298.993 92.1631H316.748L307.87 73.126L298.993 92.1631ZM10 85C10 126.421 43.5786 160 85 160C126.421 160 160 126.421 160 85C160 43.5786 126.421 10 85 10C43.5786 10 10 43.5786 10 85Z" fill="white"/>
</svg>
