<svg width="150" height="150" viewBox="0 0 150 150" fill="none" xmlns="http://www.w3.org/2000/svg">
<path d="M150 75C150 116.421 116.421 150 75 150C33.5786 150 0 116.421 0 75C0 33.5786 33.5786 0 75 0C116.421 0 150 33.5786 150 75Z" fill="black"/>
<path d="M125 75C125 102.614 102.614 125 75 125C47.3858 125 25 102.614 25 75C25 47.3858 47.3858 25 75 25C102.614 25 125 47.3858 125 75Z" fill="white"/>
<path d="M100 75C100 88.8071 88.8071 100 75 100C61.1929 100 50 88.8071 50 75C50 61.1929 61.1929 50 75 50C88.8071 50 100 61.1929 100 75Z" fill="black"/>
<path d="M70 55.5C70 62.4036 64.4036 68 57.5 68C50.5964 68 45 62.4036 45 55.5C45 48.5964 50.5964 43 57.5 43C64.4036 43 70 48.5964 70 55.5Z" fill="white"/>
</svg>
